<svg width="68" height="68" viewBox="0 0 68 68" fill="none" xmlns="http://www.w3.org/2000/svg">
<path fill-rule="evenodd" clip-rule="evenodd" d="M34 7.79169C32.3092 7.79169 30.6877 8.46334 29.4922 9.65888C28.2966 10.8544 27.625 12.4759 27.625 14.1667V14.9034C29.2031 14.875 30.9343 14.875 32.8383 14.875H35.1645C37.0628 14.875 38.7968 14.875 40.3778 14.9034V14.1667C40.3778 13.3293 40.2128 12.5001 39.8923 11.7264C39.5717 10.9528 39.1019 10.2499 38.5096 9.65788C37.9173 9.06587 37.2142 8.59635 36.4405 8.27614C35.6667 7.95594 34.8374 7.79132 34 7.79169ZM44.625 15.096V14.1667C44.625 11.3488 43.5056 8.64625 41.513 6.65368C39.5204 4.6611 36.8179 3.54169 34 3.54169C31.182 3.54169 28.4795 4.6611 26.487 6.65368C24.4944 8.64625 23.375 11.3488 23.375 14.1667V15.096C22.9698 15.13 22.5816 15.1697 22.202 15.2179C19.3403 15.572 16.983 16.3144 14.977 17.9775C12.9738 19.6407 11.8093 21.8224 10.9338 24.5707C10.0838 27.234 9.44347 30.6539 8.63881 34.9577L8.57931 35.2694C7.44031 41.3412 6.54497 46.1267 6.37781 49.8979C6.20781 53.7654 6.78581 56.967 8.96747 59.5935C11.1491 62.2229 14.1893 63.3789 18.02 63.9257C21.76 64.4584 26.6248 64.4584 32.8043 64.4584H35.1985C41.3751 64.4584 46.2428 64.4584 49.98 63.9257C53.8106 63.3789 56.8536 62.2229 59.0353 59.5935C61.217 56.967 61.7893 53.7654 61.6221 49.8979C61.4578 46.1267 60.5596 41.3412 59.4206 35.2694L59.364 34.9577C58.5565 30.6539 57.9133 27.2312 57.069 24.5707C56.1906 21.8224 55.029 19.6407 53.023 17.9775C51.0198 16.3144 48.6596 15.5692 45.798 15.2179C45.4078 15.17 45.0167 15.1294 44.625 15.096ZM22.7233 19.4367C20.3008 19.7342 18.836 20.298 17.6913 21.25C16.5495 22.1964 15.725 23.5309 14.9826 25.8599C14.2261 28.2399 13.6283 31.4075 12.7896 35.8814C11.611 42.1629 10.7751 46.648 10.625 50.0849C10.4776 53.4565 11.0216 55.4115 12.2371 56.882C13.4555 58.3469 15.2773 59.2394 18.6206 59.7154C22.0206 60.2027 26.588 60.2084 32.98 60.2084H35.02C41.4148 60.2084 45.9765 60.2027 49.3793 59.7182C52.7226 59.2394 54.5445 58.3469 55.7628 56.882C56.9811 55.4144 57.5223 53.4594 57.3778 50.082C57.2248 46.6509 56.389 42.1629 55.2103 35.8814C54.3716 31.4047 53.7766 28.2427 53.0173 25.8599C52.275 23.5309 51.4533 22.1964 50.3086 21.2472C49.164 20.298 47.702 19.7342 45.2766 19.4339C42.7946 19.1279 39.5731 19.125 35.02 19.125H32.98C28.4268 19.125 25.2053 19.1279 22.7233 19.4367ZM25.8485 29.07C26.1238 29.1157 26.3875 29.2153 26.6244 29.3629C26.8613 29.5105 27.0668 29.7034 27.2291 29.9304C27.3915 30.1575 27.5075 30.4143 27.5705 30.6863C27.6336 30.9582 27.6425 31.2398 27.5966 31.5152L24.7633 48.5152C24.7175 48.7905 24.618 49.0542 24.4703 49.291C24.3227 49.5279 24.1298 49.7334 23.9028 49.8957C23.6757 50.058 23.4189 50.174 23.147 50.2371C22.8751 50.3002 22.5935 50.3091 22.3181 50.2634C22.0428 50.2176 21.7792 50.118 21.5423 49.9704C21.3054 49.8227 21.1 49.6299 20.9376 49.4028C20.7753 49.1758 20.6593 48.919 20.5962 48.6471C20.5331 48.3752 20.5242 48.0935 20.57 47.8182L23.4033 30.8182C23.449 30.5428 23.5485 30.2792 23.6962 30.0423C23.8438 29.8054 24.0367 29.5999 24.2637 29.4375C24.4908 29.2752 24.7476 29.1592 25.0195 29.0961C25.2915 29.0331 25.5731 29.0242 25.8485 29.07ZM42.1515 29.07C42.4268 29.0242 42.7085 29.0331 42.9804 29.0961C43.2523 29.1592 43.5091 29.2752 43.7362 29.4375C43.9633 29.5999 44.1561 29.8054 44.3038 30.0423C44.4514 30.2792 44.5509 30.5428 44.5966 30.8182L47.43 47.8182C47.5224 48.3743 47.3901 48.9443 47.0623 49.4028C46.7345 49.8614 46.2379 50.1709 45.6818 50.2634C45.1257 50.3558 44.5557 50.2235 44.0972 49.8957C43.6386 49.5678 43.3291 49.0713 43.2366 48.5152L40.4033 31.5152C40.3575 31.2398 40.3664 30.9582 40.4294 30.6863C40.4925 30.4143 40.6085 30.1575 40.7708 29.9304C40.9332 29.7034 41.1387 29.5105 41.3756 29.3629C41.6124 29.2153 41.8761 29.1157 42.1515 29.07Z" fill="#343434"/>
</svg>
